<?xml version="1.0" encoding="utf-8"?>
<!-- Generator: Adobe Illustrator 19.0.0, SVG Export Plug-In . SVG Version: 6.00 Build 0)  -->
<svg version="1.1" id="Layer_1" xmlns="http://www.w3.org/2000/svg" xmlns:xlink="http://www.w3.org/1999/xlink" x="0px" y="0px"
	 viewBox="48 -13 128.9 58" style="enable-background:new 48 -13 128.9 58;" xml:space="preserve">
<style type="text/css">
	.st0{fill:#222931;}
</style>
<g>
	<path class="st0" d="M176,9.6c-0.8-1.3-2-2.2-2.8-3.5c-0.8-1.4-1.1-2.9-1.1-4.5c0-1.8,0-3.6,0-5.4c0.1-4-1.6-6.4-4.9-6.7
		c-1.3-0.1-2.8,0-4.2,0.2c-3.1,0.4-5.6,2.2-6.9,5.1c-0.8,1.8-1.4,3.7-2.2,5.6c-0.5,1.1-1.1,2.1-1.9,3.1c-0.4,0.5-0.8,0.9-1.3,1.3
		c-0.6,0.5-0.9,0.7-1.7,0.7c0.4,0.4,0.8,0.5,1.3,0.7c0.2,0.1,1.5,0.4,1.6,0.2c-1.3,3.8-5.5,6.3-9.3,7c0.7,1.1,1.8,1.9,3,2.2
		c1.5,0.5,3.5-0.3,5.1,0c2,0.5,3.2,2.2,0.9,4c2,0.3,3.9,0.1,5.6-1.1c1.2-0.8,3.2-2.2,4.7-2.1c0.9,0.1,2.5,1.6,1,2.7
		c0.2,0.1,0.8,0.3,1.4,0.2c1.8-0.2,3.3-0.8,4.7-1.8c1.5-1,2.4-2.5,3.9-3.4c0.8-0.5,2.6-0.9,3.1,0.9c0,0.2,0.1,0.3,0.1,0.5
		C177.2,13.8,177.2,11.3,176,9.6z M161.8,1.7c-2.5,0.2-3.5-4.8-1.7-5.3s7,3.8,7,3.8S164.3,1.5,161.8,1.7z M170.4,0.6
		c-1.3,0-2.9-0.5-2.9-0.5s2.5-2.6,3.5-2.5C172-2.2,171.7,0.6,170.4,0.6z"/>
	<path class="st0" d="M127.2,26c1.6-9.6,4.5-27.4,5.2-31.1c0.8-0.4,6.7-1.4,9.2-1.8c1.1-0.2,1.9-0.3,2.2-0.4
		c0.3-0.1,0.6-0.1,0.9-0.2c0.8-0.1,1.7-0.3,2.3-0.6c1.9-0.8,3.6-3.2,4.5-4.5L152-13l-0.7,0.1c-1,0.1-2,0.2-3,0.3
		c-6.5,0.8-13,2-18.6,3.1c-3.3,0.7-6.7,1.4-10.1,2.2c-1.1,0.2-2.2,0.4-3.4,0.7c-2.7,0.5-5.5,1-8,2c-0.6,0.2-1,0.5-1.4,0.9
		c-0.5,0.5-1,1.4-1.1,2c-0.1,0.5-0.1,1.1,0,1.6l0,0c0.1,0.3,0.4,0.5,0.8,0.5l0,0c0.1,0,0.3,0,0.4-0.1c1.6-0.4,10.3-2.2,12.9-2.7
		l5.1-1c0.2,0,0.5-0.1,0.8-0.2c-0.9,4.7-2.1,12.4-2.7,16.1l-0.5,3.5c-0.1,0.5-0.2,1.4-0.3,2.4c-0.3,2.4-0.7,5.8-1.1,8.4
		c-1.4,0.2-2.9,0.3-4.3,0.5c1.1-1.4,1.9-3,2.6-5.1c0.9-3-1.3-4.7-3.5-6.3c-1-0.8-2-1.5-2.8-2.4c-0.9-1.1-0.4-2.7,0.2-3.8
		c1-2.1,2.8-3.9,3.4-4.1c0,0.5-0.4,1.9-0.7,2.7c-0.2,0.7-0.4,1.4-0.5,1.9c-0.3,1.3,0,3,2.9,3.9c0.2,0.1,0.4,0.1,0.6,0.1l0,0
		c0.7,0,1.1-0.6,1.3-1.1c0.8-1.7,2-5.1,2.2-7.1c0.2-1.3,0.2-2.8-1-4c-0.8-0.8-2.3-1.7-3.7-2.1c-0.4-0.1-0.7-0.1-1.1-0.1
		c-1.4,0-2.6,0.7-3.4,1.2c-2.4,1.8-5,5.1-6.3,8.1c-1.2,2.9-0.9,5.8,1,7.8c0.5,0.6,1.4,1,2.4,1.5c1.4,0.7,3,1.6,3.4,2.8
		c0.5,1.6-0.8,3.2-1.2,3.6c-1.1,0.9-1.9,1.4-2.4,1.4s-0.7-0.5-1-1.5c-0.3-0.9-0.7-2-1.6-2.7c-0.5-0.3-1.1-0.5-1.9-0.5
		c-0.9,0-1.7,0.2-2.4,0.7c-0.3,0.2-0.7,0.5-0.7,1c-0.1,0.6,0.2,1.2,0.9,2.2c0.6,0.9,1,1.8,1.4,2.8c0.1,0.3,0.2,0.5,0.3,0.8
		c-1.5,0.2-3.1,0.5-4.6,0.8c-2.6,0.4-5.3,0.9-8.2,1.3c-3,0.5-6.1,1-9.2,1.5c0.8-4.7,1.8-10.8,2.6-15.3c0.6-0.1,1.2-0.3,1.8-0.4
		c-0.6,3.1-0.6,5.8,0,7.8c0.4,1.4,1.5,2.5,2.2,2.9c1,0.6,2.6,1,4.1,1c0.1,0,0.1,0,0.2,0l0,0c2.2,0,3.9-0.7,5.3-2.4
		c4.6-5,7.1-14.2,6.8-20.2c-0.1-1.7-0.7-3-1.8-4c-1-0.9-2.8-1.5-4.7-1.6c-0.1,0-0.1,0-0.2,0c-1.4,0-3.3,0.8-4.4,1.8
		c-2.4,2.2-4.5,5.5-6,9.2c-0.9,0.2-1.7,0.3-2.5,0.5c0.6-3.4,1.2-6.1,1.5-7.8c0.2-1.1,0-1.7-1-2.1c-0.9-0.4-2-0.7-3.1-0.8
		c-0.1,0-0.2,0-0.3,0c-1,0-1.5,0.4-1.7,1.5s-0.9,5-1.7,10.5c-1.1,0.2-2.1,0.4-3.2,0.7c1-5.8,2.1-12.3,2.4-13.4c0.2-1.2,0-1.6-1-2.1
		c-0.9-0.4-2.3-0.8-3.2-0.9c-0.2,0-0.3,0-0.4,0C74-2.5,73.6-2,73.3-1c-0.5,2.4-2,10.6-2.9,16.4c-1.3,0.3-3.6,0.8-5.3,1.2
		c-1,0.2-1.7,0.4-1.9,0.4c-1.4,0.3-3.7,1-5.1,1.5c-0.7,0.2-1.3,0.5-1.2,1.5c0.2,2.2,1.2,3.2,2.9,3.2c0.1,0,0.2,0,0.3,0
		c-1.3,2.6-2.8,4.5-3.7,4.5c-0.1,0-0.1,0-0.2,0c-0.4-0.1-0.8-1.6-0.8-4.6c0.1-2.7,0.5-5.6,1.1-7.6c2-6.5,5.1-12,6.7-12
		c0.1,0,0.2,0,0.4,0.1c0.5,0.3,0.5,1.6,0.5,2.8c0,1.1,0,2.1,0.4,2.7c0.6,1,1.8,1.9,2.7,2.3l0.3,0.1l0.1-0.3c0.8-1.5,1.7-3.6,2.1-5.8
		c0.4-2.5-0.1-4.3-1.4-5.6c-1-0.9-2.9-1.6-4.7-1.6c-0.1,0-0.2,0-0.3,0c-0.9,0-2.6,0.2-4,1.4c-2.8,2.4-5.7,7.7-7.8,14.1
		c-1.9,6-2.6,11.8-1.8,14.6c0.3,1.2,1.2,2.4,2.3,3c1.2,0.7,2.6,1.1,4,1.2c1.3,0.1,2.6-0.2,3.8-0.9c0,0.1,0,0.1,0,0.2
		c-0.2,1.2-0.3,1.7-0.1,2.5c0.2,0.7,0.4,1.1,1,1.4h0.1c0.4,0.2,0.7,0.4,1,0.4c0.2,0,0.3,0,0.5-0.1c0.6-0.3,1-1.1,1.4-2
		c0-0.1,0.1-0.2,0.2-0.3l0,0c1.2-3.2,1.4-4,1.9-5.8c0.1-0.4,0.2-0.8,0.4-1.2c0.2-0.8,0.4-1.4,0.6-2c0.2-0.6,0.4-1.2,0.6-2
		c0.2-0.9,0.4-1.7,0.5-2.1c0.6-0.1,1.2-0.3,1.8-0.4l-0.2,1.6c-0.3,2.7-0.6,5.1-0.7,6.7c-0.1,1.2,0.1,1.9,1.1,2.4
		c0.7,0.3,1.8,0.5,2.8,0.6c0.1,0,0.1,0,0.2,0c0.9,0,1.3-0.4,1.5-1.4c0.1-0.9,0.9-5.2,1.9-11.2l2.6-0.5c0.2,0,0.5-0.1,0.7-0.1
		c-0.5,3.3-1.7,10.8-2.3,15.1c-3.2,0.6-6.2,1.2-9.2,2c-1.1,0.2-2.2,0.4-3.2,0.6c-2.2,0.4-4.4,0.8-6.5,1.6c-3,1.1-5.7,2.6-8.2,4.7
		c-0.8,0.6-1.6,1.4-2.1,2.3l0,0l0.4,0.4c0.3-0.4,3-0.8,4.1-1c0.5-0.1,0.9-0.1,1.1-0.2c2.2-0.5,4.4-1.1,6.6-1.6c4.4-1,9-2,13.7-2.9
		c1.1-0.2,2.2-0.4,3.4-0.7c0.1,0.1,0.3,0.2,0.4,0.3c0.8,0.4,1.9,0.5,2.8,0.6c0.1,0,0.1,0,0.2,0c1,0,1.3-0.5,1.4-1.4
		c0-0.1,0-0.2,0-0.3c6.2-1.1,12.6-2.2,19.5-3.2c6.1-0.9,12.3-1.7,19.1-2.5c0.2,0.4,0.5,0.6,0.9,0.8c0.7,0.3,1.8,0.5,2.8,0.6
		c0.1,0,0.1,0,0.2,0c0.9,0,1.3-0.4,1.5-1.4c0-0.1,0-0.3,0.1-0.5c0.2,0,0.4,0,0.5,0c5.1-0.4,10.9-0.8,15.1-4.2
		c0.6-0.5,1.2-1.1,1.7-1.8c0.2-0.3,0.4-0.5,0.4-0.8l0.1-0.4l-3.7,0.4C136.1,25.1,131.7,25.5,127.2,26z M94.3,15.5
		c0.8-0.2,1.3-0.3,1.6-0.3c1.6-0.4,2.3-0.9,2.7-1.7c0.1-0.3,0.2-0.6,0.2-0.8c0-0.2,0.1-0.4,0.1-0.6c0.2-0.6,0.3-1,0-1.4
		c-0.1-0.2-0.3-0.5-0.7-0.5c-0.1,0-0.2,0-0.4,0.1c-0.4,0.1-0.8,0.1-1.3,0.2C98,7.6,99.4,6,100,6l0,0c0,0,0.1,0,0.2,0.2
		c0.7,1.1-0.1,5.9-1.3,9.4c-1.8,5.4-3.9,8.3-5,8.3c-0.1,0-0.1,0-0.2,0c-0.1,0-0.2-0.1-0.3-0.3C92.8,22.3,93.2,18.9,94.3,15.5z"/>
</g>
</svg>
