<?xml version="1.0" encoding="utf-8"?>
<!-- Generator: Adobe Illustrator 19.0.0, SVG Export Plug-In . SVG Version: 6.00 Build 0)  -->
<svg version="1.1" id="Layer_1" xmlns="http://www.w3.org/2000/svg" xmlns:xlink="http://www.w3.org/1999/xlink" x="0px" y="0px"
	 viewBox="0 0 230 231" style="enable-background:new 0 0 230 231;" xml:space="preserve">
<g>
	<g>
		<path d="M161.6,1.7c8.5,0.3,16.3,2.5,23.2,7.2c8.8,6,17.7,11.9,26.3,18.2C230.4,41,234.7,65.3,221.4,85
			c-10.9,16.1-22,32.1-33.2,48.1c-5,7.2-13,9-19.5,4.5c-6.5-4.5-7.8-12.6-2.8-19.8c10.6-15.5,21.4-31,32-46.5
			c6.5-9.4,5-16.8-4.4-23.4c-7.7-5.3-15.3-10.7-23-15.9c-7.8-5.3-15.8-3.9-21.3,3.9c-11,15.7-21.8,31.5-32.6,47.3
			c-3.5,5.1-8.1,8-14.4,6.9C93,88.6,87.7,78,93,70.2c12.2-18.3,24.5-36.5,37.6-54.1C138.1,6,149.4,2.1,161.6,1.7z"/>
		<path d="M60.5,229.6c-13.7-0.3-24.9-5.7-33-16.8c-6.7-9.1-13.1-18.5-19.3-28c-12.3-18.9-7.9-43.2,10.5-56.3
			C35,116.9,51.5,105.6,68,94.4c7-4.8,14.9-3.5,19.4,3c4.5,6.5,2.9,14.5-4.3,19.5c-15.3,10.7-30.7,21.2-46,31.8
			c-10,6.9-11.2,14.1-4.3,24.1c5.2,7.5,10.4,15.1,15.6,22.6c5.5,7.8,13.3,9.3,21.3,3.9c16-10.9,31.8-21.9,47.7-32.9
			c5.1-3.6,10.5-4.2,15.9-0.8c4.9,3,7.2,7.8,5.8,13.2c-0.9,3.4-3,7.3-5.8,9.3c-16.5,11.9-33.3,23.3-50.1,34.7
			C76.4,227.5,68.8,229.7,60.5,229.6z"/>
		<path d="M89.7,165.9c-7.6-0.1-11.7-2.7-14.2-7.8c-2.4-4.9-1.5-10.9,2.4-14.8c2.5-2.4,5.2-4.7,8.2-6.5c20.3-13,37-29.6,50-50
			c1.6-2.5,3.5-4.9,5.4-7.1c5-5.7,12.5-6.5,18.4-2.2c5.8,4.3,7.5,12.2,3.2,18.2c-9.2,12.8-18.9,25.4-28.4,38c-1,1.3-2.4,2.3-3.7,3.3
			c-11.2,8.4-22.3,16.9-33.6,25.1C94.7,164,91.3,165.1,89.7,165.9z"/>
		<path d="M157.1,178.7c4.1,9.9,8.2,19.8,12.3,29.6c1.1,2.6,2.2,5.2,3.2,7.8c1.5,4.2,0.6,7.9-2.7,10.9c-3.1,2.9-6.8,3.4-10.7,1.8
			c-4.1-1.7-6.3-5-6-9.4c0.9-13.5,2-27,3-40.5C156.5,178.8,156.8,178.8,157.1,178.7z"/>
		<path d="M178.7,156.8c12.9-1,25.8-2.1,38.7-3.1c4.8-0.4,8.5,1.4,10.7,5.7c2,4,1.3,7.8-1.6,11.1c-3.3,3.6-7.5,4-11.9,2.3
			c-12.1-4.9-24.1-10-36.1-15C178.5,157.5,178.6,157.1,178.7,156.8z"/>
	</g>
</g>
</svg>
